# xmcd CD database file
#
# Track frame offsets:
#	151
#	11858
#	29393
#	65096
#	80551
#	102846
#	128985
#	158116
#	172821
#	196860
#	203445
#	221790
#
# Disc length: 3233 seconds
#
# Revision: 0
# Processed by: cddbd v1.4PL0 Copyright (c) Steve Scherf et al.
# Submitted via: CDex 1.50
#
DISCID=a10c9f0c
DTITLE=Various Artist - The Cream Of Jazzy Vibes Vol 1 CD 3
DYEAR=1997
DGENRE=Jazz
TTITLE0=Poquito Soul - One G Plus Three
TTITLE1=The Dancers - George Golla
TTITLE2=Wet Walnuts and Whipped Cream - The Arpeggio Jazz Ensemble
TTITLE3=Sister Sanctified - Weldon Irvine
TTITLE4=Feelings - Cheyennes Coming
TTITLE5=Samba To Remember You By - Sam MOst and Joe Farell
TTITLE6=Liberated Brother - Weldon Irvin
TTITLE7=Mr Magic - Kelle Patterson
TTITLE8=Mr Clean - Weldon Irvine
TTITLE9=Univers - George Semper
TTITLE10=Flip It And Fry - Inner Swing
TTITLE11="Nickie" - Myles Kayne
EXTD=YEAR: 1997
EXTT0=
EXTT1=
EXTT2=
EXTT3=
EXTT4=
EXTT5=
EXTT6=
EXTT7=
EXTT8=
EXTT9=
EXTT10=
EXTT11=
PLAYORDER=
